<?xml version="1.0" encoding="utf-8"?>
<!-- Generator: Adobe Illustrator 20.1.0, SVG Export Plug-In . SVG Version: 6.00 Build 0)  -->
<svg version="1.1" id="Layer_1" xmlns="http://www.w3.org/2000/svg" xmlns:xlink="http://www.w3.org/1999/xlink" x="0px" y="0px"
	 viewBox="0 0 80 80" style="enable-background:new 0 0 80 80;" xml:space="preserve">
<style type="text/css">
	.st0{fill:#FF0066;}
	.st1{fill:#3300FF;}
</style>
<circle class="st0" cx="40" cy="40" r="40"/>
<path class="st1" d="M28,40c-1.7,0-3-1.3-3-3s1.3-3,3-3s3,1.3,3,3S29.7,40,28,40z M55,37c0-1.7-1.3-3-3-3s-3,1.3-3,3s1.3,3,3,3
	S55,38.7,55,37z M36.6,41c-1.3,0-2,1.6-1.3,2.7c1,1.4,2.7,2.3,4.7,2.3s3.7-0.9,4.7-2.3c0.8-1.1,0-2.7-1.3-2.7H36.6z"/>
</svg>
